<svg xmlns="http://www.w3.org/2000/svg" width="22.494" height="25.707" viewBox="0 0 22.494 25.707">
  <path id="Icon_metro-clipboard" data-name="Icon metro-clipboard" d="M25.439,4.82h-7.23a3.213,3.213,0,0,0-6.427,0H4.552a.8.8,0,0,0-.8.8V26.51a.8.8,0,0,0,.8.8H25.439a.8.8,0,0,0,.8-.8V5.623A.8.8,0,0,0,25.439,4.82ZM15,3.213A1.607,1.607,0,1,1,13.389,4.82,1.607,1.607,0,0,1,15,3.213Zm9.64,22.494H5.356V6.427H8.569v2.41a.8.8,0,0,0,.8.8H20.619a.8.8,0,0,0,.8-.8V6.427h3.213v19.28ZM13.389,23.159,8.236,17.2l1.469-1.469,3.684,2.881,6.9-6.094,1.469,1.469Z" transform="translate(-3.749 -1.607)"/>
</svg>
