<svg xmlns="http://www.w3.org/2000/svg" width="33.752" height="30.001" viewBox="0 0 33.752 30.001">
  <path id="Icon_awesome-hand-holding-heart" data-name="Icon awesome-hand-holding-heart" d="M16.131,14.678a1.021,1.021,0,0,0,1.494,0l6.381-6.691a4.857,4.857,0,0,0-.328-6.961,4.454,4.454,0,0,0-6.146.451l-.656.686-.65-.68a4.449,4.449,0,0,0-6.146-.457A4.862,4.862,0,0,0,9.75,7.986Zm16.992,4.547a1.94,1.94,0,0,0-2.5,0l-5.414,4.33a3.73,3.73,0,0,1-2.344.82H15.938a.938.938,0,0,1,0-1.875h4.588a1.951,1.951,0,0,0,1.951-1.559,1.877,1.877,0,0,0-1.852-2.191H11.25a6.9,6.9,0,0,0-4.342,1.541L4.184,22.5H.938A.94.94,0,0,0,0,23.438v5.625A.94.94,0,0,0,.938,30H21.844a3.755,3.755,0,0,0,2.344-.82l8.859-7.09A1.874,1.874,0,0,0,33.123,19.225Z" transform="translate(0 0.001)"/>
</svg>
