<svg xmlns="http://www.w3.org/2000/svg" width="29.063" height="29.063" viewBox="0 0 29.063 29.063">
  <path id="Icon_awesome-question-circle" data-name="Icon awesome-question-circle" d="M29.531,15A14.531,14.531,0,1,1,15,.469,14.53,14.53,0,0,1,29.531,15ZM15.39,5.273A7.589,7.589,0,0,0,8.561,9.009a.7.7,0,0,0,.159.953L10.753,11.5a.7.7,0,0,0,.976-.124c1.047-1.328,1.764-2.1,3.358-2.1,1.2,0,2.678.77,2.678,1.931,0,.877-.724,1.328-1.906,1.991-1.378.773-3.2,1.734-3.2,4.14v.234a.7.7,0,0,0,.7.7h3.281a.7.7,0,0,0,.7-.7V17.5c0-1.668,4.874-1.737,4.874-6.25,0-3.4-3.525-5.977-6.828-5.977ZM15,19.8a2.7,2.7,0,1,0,2.7,2.7A2.7,2.7,0,0,0,15,19.8Z" transform="translate(-0.469 -0.469)"/>
</svg>
