<svg xmlns="http://www.w3.org/2000/svg" width="320.686" height="74.807" viewBox="0 0 320.686 74.807">
  <g id="Group_5" data-name="Group 5" transform="translate(-17.72 -669.262)">
    <g id="Group_3" data-name="Group 3">
      <path id="Path_32" data-name="Path 32" d="M46.667,669.262v1.224c-3.241,0-6.265,2.016-6.265,6.625v29.738c0,17.353-10.657,23.4-22.394,25.13l-.288-1.224c6.193-2.232,11.953-8.281,11.953-23.906V685.9c0-13.537,0-15.409-5.9-15.409v-1.224Z" fill="#f79431"/>
      <path id="Path_33" data-name="Path 33" d="M85.764,712.434v1.224l-10.657,1.873c-1.944.288-2.016-1.369-2.016-1.369v-6.337c-1.729,4.1-7.705,7.777-12.169,7.777-5.689,0-9.073-2.376-9.073-11.017V689.176c0-4.32.144-4.969-4.032-5.545v-1.223l12.96-1.369v23.33c0,4.033,1.873,5.977,6.049,5.977,2.016,0,4.753-1.8,6.265-4.681V689.392c0-4.393.288-5.328-3.385-5.761v-1.223l12.385-1.369v27.29C82.091,711.785,82.739,712.074,85.764,712.434Z" fill="#f79431"/>
      <path id="Path_34" data-name="Path 34" d="M143.149,709.954H128.315V708.73c2.736-.792,2.88-3.888,2.88-7.561V687.2c0-4.032-2.016-5.976-5.256-5.976-2.664,0-5.688,3.24-5.688,6.12v13.825c0,3.961.359,6.913,2.952,7.561v1.224H108.369V708.73c2.737-.792,2.881-3.888,2.881-7.561V687.2c0-4.032-1.945-5.976-5.185-5.976-2.664,0-5.76,3.312-5.76,5.9v14.186c0,3.96.432,6.7,2.952,7.416v1.224H88.5V708.73c2.736-.792,2.808-3.744,2.808-7.416v-15.77c0-2.52-.648-3.816-3.6-5.4v-1.225l12.6-2.88v7.417c1.944-4.176,6.336-7.417,10.873-7.417,5.04,0,8.136,2.3,9,7.633a12.132,12.132,0,0,1,10.945-7.633c5.617,0,9.073,2.233,9.073,10.945v14.185c0,3.961.36,6.913,2.953,7.561Z" fill="#f79431"/>
      <path id="Path_35" data-name="Path 35" d="M184.259,698.609c0,11.592-7.633,16.993-17.714,16.993a15.949,15.949,0,0,1-8.568-2.232v12.457c0,4.033.431,6.336,2.952,6.985v1.223H146.168v-1.223c2.735-.792,2.879-3.313,2.879-6.985V689.176c0-2.448-.719-2.952-3.6-4.032v-1.225l12.53-2.88v5.832c2.3-4.248,7.56-5.832,10.945-5.832C177.058,681.039,184.259,687.3,184.259,698.609Zm-10.3.648c0-11.594-2.736-15.554-8.569-15.554-4.32,0-6.912,3.456-7.416,7.777v13.178c.648,7.344,4.752,9.72,8.424,9.72C171.658,714.378,173.962,710.2,173.962,699.257Z" fill="#f79431"/>
      <path id="Path_36" data-name="Path 36" d="M214.425,716.714s-2.735,3.888-10.08,3.888c-8.713,0-13.033-3.312-13.033-3.312v-9.073h1.224c1.08,2.809,3.384,11.161,11.809,11.161,5.112,0,5.976-6.48.5-10.081l-7.273-4.392c-6.985-4.248-8.857-10.081-4.9-15.265,0,0,2.736-3.6,9.936-3.6,8.281,0,11.882,2.161,11.882,2.161v8.064h-1.224c-.936-2.521-3.241-9-10.658-9-4.68,0-6.7,5.545-.431,9.505l7.272,4.537C215.866,705.265,218.026,711.53,214.425,716.714Z" fill="#f79431"/>
      <path id="Path_37" data-name="Path 37" d="M243.3,712.97l1.08.647a12.394,12.394,0,0,1-10.657,6.985c-5.688,0-9.072-2.3-9.072-11.017V687.911h-3.6l-.216-1.224h3.817v-9.649l9-1.511v11.16h8.569l-.288,1.224h-8.281v21.458c0,4.033,1.729,6.121,5.329,6.121A5.289,5.289,0,0,0,243.3,712.97Z" fill="#f79431"/>
      <path id="Path_38" data-name="Path 38" d="M281.169,714.986l1.224.5c-.576,2.3-3.889,5.112-8.425,5.112,0,0-6.409,0-7.2-5.832-1.08,3.168-5.328,5.832-10.441,5.832,0,0-8.28,0-8.28-7.345,0-7.849,6.048-8.568,18.649-11.736v-4.465c0-7.488-4.176-11.232-9.145-8.641-2.3,1.153-2.592,2.376-2.088,2.449a3.721,3.721,0,0,1,2.665,1.584,4.075,4.075,0,0,1-1.08,5.688,4.139,4.139,0,0,1-5.689-1.08,4.25,4.25,0,0,1-.216-4.32c.72-1.224,1.656-3.168,5.616-5.256a14.341,14.341,0,0,1,6.985-1.441c9.433,0,12.025,5.9,12.025,14.4v10.728s-.072,5.041,3.456,5.041A2.13,2.13,0,0,0,281.169,714.986ZM266.7,702.817c-7.056,1.584-9.433,4.968-9.433,8.64,0,0,0,4.753,4.681,4.753a5.325,5.325,0,0,0,4.752-3.673Z" fill="#f79431"/>
      <path id="Path_39" data-name="Path 39" d="M311.047,687.335a5.386,5.386,0,0,1-7.057,8.137,4.8,4.8,0,0,1-1.655-3.528c0-.792-2.954-.073-5.618,4.248v14.977c0,4.032.361,6.841,2.953,7.561v1.224h-14.9V718.73c2.808-.864,2.88-3.817,2.88-7.561V695.184c0-2.448-.648-3.528-3.6-5.04v-1.225l12.672-2.88v8.137c3.817-5.976,6.769-7.057,8.5-7.776A6.439,6.439,0,0,1,311.047,687.335Z" fill="#f79431"/>
      <path id="Path_40" data-name="Path 40" d="M337.326,712.97l1.08.647a12.4,12.4,0,0,1-10.657,6.985c-5.689,0-9.073-2.3-9.073-11.017V687.911h-3.6l-.216-1.224h3.816v-9.649l9-1.511v11.16h8.57l-.288,1.224h-8.282v21.458c0,4.033,1.729,6.121,5.329,6.121A5.293,5.293,0,0,0,337.326,712.97Z" fill="#f79431"/>
    </g>
    <g id="Group_4" data-name="Group 4">
      <path id="Path_41" data-name="Path 41" d="M188.781,726.519a3.746,3.746,0,0,1,1.768,3.353,3.5,3.5,0,0,1-.949,2.354,5.506,5.506,0,0,1-2.8,1.572v.027a6.621,6.621,0,0,1,3.77,1.664,4.092,4.092,0,0,1,1.274,2.99,4.541,4.541,0,0,1-1.755,3.821,7.271,7.271,0,0,1-4.563,1.353h-8.84v-1.716a3.438,3.438,0,0,0,1.066-.169,1.087,1.087,0,0,0,.572-.611,3.913,3.913,0,0,0,.208-1.483v-9.958a20.766,20.766,0,0,1,.1-2.34l-1.95.078v-2l7.2-.051A8.8,8.8,0,0,1,188.781,726.519Zm-6.474,8.762v4.238a20.4,20.4,0,0,1-.1,2.287q1.716,0,2.522-.025a3.034,3.034,0,0,0,2.288-.976,3.618,3.618,0,0,0,.754-2.4,2.85,2.85,0,0,0-.962-2.406,3.805,3.805,0,0,0-2.392-.741Q182.982,735.254,182.307,735.281Zm.715-7.93a1.014,1.014,0,0,0-.52.61,4.059,4.059,0,0,0-.195,1.444v4.03l1.352-.027a2.617,2.617,0,0,0,2.223-.975,4.177,4.177,0,0,0,.689-2.509,2.527,2.527,0,0,0-.78-2.054,2.874,2.874,0,0,0-1.9-.65A2.383,2.383,0,0,0,183.022,727.351Z" fill="#2c7695"/>
      <path id="Path_42" data-name="Path 42" d="M203.978,730.783a2.182,2.182,0,0,1,.2,2.86,1.573,1.573,0,0,1-1.326.571,2.033,2.033,0,0,1-1.157-.338,1.476,1.476,0,0,1-.585-1.17,2.12,2.12,0,0,0-1.495.845,4.58,4.58,0,0,0-1.027,1.678v4.237c0,.832-.035,1.6-.1,2.288q.832-.078,1.69-.078v1.977h-6.812v-1.691c.659,0,1.079-.181,1.261-.546a4.205,4.205,0,0,0,.273-1.767v-4.368q0-1.172.1-2.21l-1.82.078v-1.977a12.262,12.262,0,0,0,2.652-.233,3.171,3.171,0,0,0,1.352-.546h1.274c.034.26.061.6.078,1.014s.026.823.026,1.221h.052q1.769-2.392,3.744-2.391A2.4,2.4,0,0,1,203.978,730.783Z" fill="#2c7695"/>
      <path id="Path_43" data-name="Path 43" d="M216.289,735.2l-.026,4.264c0,.832-.035,1.6-.1,2.288q.858-.078,1.69-.078v1.977h-4.914c-.034-.226-.069-.624-.1-1.2H212.8a5.193,5.193,0,0,1-3.848,1.613,3.444,3.444,0,0,1-2.587-.976,3.408,3.408,0,0,1-.949-2.482,3.764,3.764,0,0,1,2.132-3.472,11.473,11.473,0,0,1,5.122-1.313v-1.352q0-2.364-1.768-2.365a2.534,2.534,0,0,0-1.872.727,1.469,1.469,0,0,1,.312.989,1.659,1.659,0,0,1-.429,1.118,1.58,1.58,0,0,1-1.261.494,1.534,1.534,0,0,1-1.222-.508,1.848,1.848,0,0,1-.442-1.261,2.556,2.556,0,0,1,.728-1.794,4.759,4.759,0,0,1,1.989-1.209,8.555,8.555,0,0,1,2.769-.428Q216.29,730.237,216.289,735.2Zm-6.175,3.25a1.911,1.911,0,0,0-1,1.691,1.24,1.24,0,0,0,.429,1.039,1.646,1.646,0,0,0,1.053.339,2.745,2.745,0,0,0,2.054-.937v-2.912A5.881,5.881,0,0,0,210.114,738.452Z" fill="#2c7695"/>
      <path id="Path_44" data-name="Path 44" d="M231.707,731.588a7.431,7.431,0,0,1,1.014,4.395v3.483c0,.832-.035,1.6-.1,2.288q.858-.078,1.69-.078v1.977h-6.812v-1.691c.658,0,1.083-.181,1.274-.546a4.044,4.044,0,0,0,.286-1.767l-.026-3.693a5.09,5.09,0,0,0-.481-2.521,1.742,1.742,0,0,0-1.625-.807,3.258,3.258,0,0,0-1.274.274,3.606,3.606,0,0,0-1.092.688v5.876c0,.832-.035,1.6-.1,2.288q.831-.078,1.69-.078v1.977h-6.812v-1.691c.658,0,1.079-.181,1.261-.546a4.205,4.205,0,0,0,.273-1.767v-4.368q0-1.172.1-2.21l-1.82.078v-1.977a12.262,12.262,0,0,0,2.652-.233,3.177,3.177,0,0,0,1.352-.546h1.274q0,.051.1,1.3h.052a7.1,7.1,0,0,1,1.859-1.028,5.374,5.374,0,0,1,1.885-.428A3.958,3.958,0,0,1,231.707,731.588Z" fill="#2c7695"/>
      <path id="Path_45" data-name="Path 45" d="M248.06,739.466a22.889,22.889,0,0,1-.1,2.288q.858-.078,1.691-.078v1.977h-4.941l-.13-1.2h-.026a4.883,4.883,0,0,1-3.666,1.613,4.758,4.758,0,0,1-2.743-.807,5.29,5.29,0,0,1-1.845-2.3,8.487,8.487,0,0,1-.664-3.47,8.394,8.394,0,0,1,.807-3.732,6.229,6.229,0,0,1,2.275-2.587,6.126,6.126,0,0,1,3.366-.935,6.973,6.973,0,0,1,2.315.467v-1.715q0-1.248.1-2.289-.859.078-1.847.079V724.8a12.251,12.251,0,0,0,2.652-.233,3.178,3.178,0,0,0,1.352-.546h1.4Zm-7.89-5.876a7.7,7.7,0,0,0-.716,3.511,7.107,7.107,0,0,0,.689,3.236,2.226,2.226,0,0,0,2.093,1.365,2.368,2.368,0,0,0,1.223-.337,2.791,2.791,0,0,0,.936-.911v-7.8a2.542,2.542,0,0,0-.806-.352,3.935,3.935,0,0,0-1.041-.143A2.516,2.516,0,0,0,240.17,733.59Z" fill="#2c7695"/>
      <path id="Path_46" data-name="Path 46" d="M275.542,727.168a2.351,2.351,0,0,0-1.56.69,5.814,5.814,0,0,0-1.2,2.092l-5.2,13.858h-2.133l-5.98-13.962a7.468,7.468,0,0,1-.728-2.47l-1.4.078v-2h7.67v1.716q-1.716-.051-1.715,1.092a2.339,2.339,0,0,0,.208.91l2.392,5.876q.312.729.779,1.924.156.417.7,1.794h.025l1.248-3.588,1.977-5.434a7.483,7.483,0,0,1,1.065-2.366v-.025l-1.352.077-.649.026v-2h5.85Z" fill="#2c7695"/>
      <path id="Path_47" data-name="Path 47" d="M285.084,735.2l-.026,4.264c0,.832-.035,1.6-.1,2.288q.858-.078,1.69-.078v1.977H281.73c-.035-.226-.07-.624-.1-1.2H281.6a5.194,5.194,0,0,1-3.848,1.613,3.308,3.308,0,0,1-3.537-3.458,3.763,3.763,0,0,1,2.133-3.472,11.47,11.47,0,0,1,5.122-1.313v-1.352q0-2.364-1.768-2.365a2.534,2.534,0,0,0-1.872.727,1.469,1.469,0,0,1,.312.989,1.659,1.659,0,0,1-.429,1.118,1.582,1.582,0,0,1-1.261.494,1.533,1.533,0,0,1-1.222-.508,1.848,1.848,0,0,1-.442-1.261,2.551,2.551,0,0,1,.728-1.794,4.759,4.759,0,0,1,1.989-1.209,8.547,8.547,0,0,1,2.769-.428Q285.083,730.237,285.084,735.2Zm-6.175,3.25a1.909,1.909,0,0,0-1,1.691,1.24,1.24,0,0,0,.429,1.039,1.645,1.645,0,0,0,1.053.339,2.743,2.743,0,0,0,2.053-.937v-2.912A5.88,5.88,0,0,0,278.909,738.452Z" fill="#2c7695"/>
      <path id="Path_48" data-name="Path 48" d="M292.935,739.466c0,.832-.035,1.6-.1,2.288q.858-.078,1.69-.078v1.977h-6.812v-1.691a1.589,1.589,0,0,0,1.027-.272,1.248,1.248,0,0,0,.416-.741,7.167,7.167,0,0,0,.091-1.3V728.962a22.427,22.427,0,0,1,.1-2.262l-1.82.079V724.8a12.258,12.258,0,0,0,2.652-.233,3.184,3.184,0,0,0,1.352-.546h1.4Z" fill="#2c7695"/>
      <path id="Path_49" data-name="Path 49" d="M309.029,739.466a22.882,22.882,0,0,1-.1,2.288q.832-.078,1.691-.078v1.977h-4.941l-.155-1.353h-.026a9.842,9.842,0,0,1-1.86,1.3,4.3,4.3,0,0,1-2.014.468,3.857,3.857,0,0,1-3.316-1.353,7.5,7.5,0,0,1-1-4.393v-2.991q0-1.09.078-2.261l-1.82.078v-1.977a12.262,12.262,0,0,0,2.652-.233,3.183,3.183,0,0,0,1.352-.546h1.43v7.955a5.463,5.463,0,0,0,.442,2.522,1.485,1.485,0,0,0,1.4.806,2.862,2.862,0,0,0,1.339-.363,4.115,4.115,0,0,0,1.158-.885v-5.1q0-1.221.1-2.261l-1.82.078v-1.977a12.064,12.064,0,0,0,2.638-.233,3.158,3.158,0,0,0,1.34-.546h1.43Z" fill="#2c7695"/>
      <path id="Path_50" data-name="Path 50" d="M322.744,731.718q1.677,1.482,1.65,4.94l-8.527.157a6.513,6.513,0,0,0,.871,3.613,3.094,3.094,0,0,0,2.795,1.326,4.776,4.776,0,0,0,1.95-.468,5.19,5.19,0,0,0,1.872-1.482l1.17,1.093a7,7,0,0,1-6.059,3.172,6.561,6.561,0,0,1-3.353-.846,5.765,5.765,0,0,1-2.263-2.4,7.829,7.829,0,0,1-.8-3.641,7.4,7.4,0,0,1,.819-3.419,6.559,6.559,0,0,1,2.3-2.56,6.571,6.571,0,0,1,7.579.519Zm-5.851,1.131a4.3,4.3,0,0,0-.87,2.145h4.783q-.076-2.939-2.132-2.938A2.206,2.206,0,0,0,316.893,732.849Z" fill="#2c7695"/>
      <path id="Path_51" data-name="Path 51" d="M332.766,730.47a4.7,4.7,0,0,1,1.483.65h.025l-.025-.754h1.975v4.6h-1.689a3.39,3.39,0,0,0-1.2-2.132,3.643,3.643,0,0,0-2.367-.78,2.106,2.106,0,0,0-1.221.339,1.319,1.319,0,0,0,.078,2.118,9.785,9.785,0,0,0,1.924.793,5.7,5.7,0,0,1,.675.208,10.367,10.367,0,0,1,3.394,1.82,3.465,3.465,0,0,1,1.183,2.731,3.586,3.586,0,0,1-.664,2.2,4.094,4.094,0,0,1-1.742,1.353,5.95,5.95,0,0,1-2.327.455,8.411,8.411,0,0,1-2.183-.286,4.989,4.989,0,0,1-1.665-.729H328.4l.078.78H326.5l-.105-4.471h1.691a2.815,2.815,0,0,0,1.26,2.014,4.6,4.6,0,0,0,2.77.82,2.312,2.312,0,0,0,1.261-.338,1.079,1.079,0,0,0,.533-.962,1.024,1.024,0,0,0-.338-.781,2.963,2.963,0,0,0-.807-.52q-.467-.207-1.872-.754-1.664-.649-2.5-1.065a4.55,4.55,0,0,1-1.495-1.236,3.266,3.266,0,0,1-.662-2.119,3.991,3.991,0,0,1,2.171-3.575,5.558,5.558,0,0,1,2.717-.61A6.473,6.473,0,0,1,332.766,730.47Z" fill="#2c7695"/>
    </g>
  </g>
</svg>
