<svg xmlns="http://www.w3.org/2000/svg" width="23.125" height="18.75" viewBox="0 0 23.125 18.75">
  <path id="Icon_material-format-list-bulleted" data-name="Icon material-format-list-bulleted" d="M5,13.125A1.875,1.875,0,1,0,6.875,15,1.872,1.872,0,0,0,5,13.125Zm0-7.5A1.875,1.875,0,1,0,6.875,7.5,1.872,1.872,0,0,0,5,5.625Zm0,15A1.875,1.875,0,1,0,6.875,22.5,1.881,1.881,0,0,0,5,20.625ZM8.75,23.75h17.5v-2.5H8.75Zm0-7.5h17.5v-2.5H8.75Zm0-10v2.5h17.5V6.25Z" transform="translate(-3.125 -5.625)"/>
</svg>
