<svg id="Component_2_2" data-name="Component 2 – 2" xmlns="http://www.w3.org/2000/svg" width="60" height="60" viewBox="0 0 60 60">
  <g id="Ellipse_1" data-name="Ellipse 1" fill="#fff" stroke="#707070" stroke-width="3">
    <circle cx="30" cy="30" r="30" stroke="none"/>
    <circle cx="30" cy="30" r="28.5" fill="none"/>
  </g>
  <g id="Group_2" data-name="Group 2" transform="translate(-483.013 -270.559)">
    <path id="Path_26" data-name="Path 26" d="M774.409,329.188c-1.081-.226-2.145-.5-3.188-.821l3.584-22.221,3.712-.115,6.732-.213,3.452-.108s2.449,10.761,4.317,22.951a38.4,38.4,0,0,1-5.354,1.074,39.049,39.049,0,0,1-4.647.318c-.129,0-.257,0-.385,0-.848,0-1.692-.027-2.526-.081-.73-.047-1.452-.111-2.168-.2-1.1-.132-2.2-.307-3.27-.537-.047-.007-.095-.017-.142-.027Z" transform="translate(-270.513 -3.696)" fill="#cbcbcb"/>
    <path id="Path_27" data-name="Path 27" d="M762.54,328.814c-.047-.007-.095-.017-.142-.027l-.115-.024c-1.081-.226-2.145-.5-3.188-.821q-1.474-.446-2.895-1.007c-.243-.095-.483-.189-.723-.29-.6-.25-1.189-.51-1.77-.79-.169-.078-.334-.159-.5-.24l-.3-16.638,9.12-3.908s.03.243,4.36.537C767.214,308.3,762.54,328.814,762.54,328.814Z" transform="translate(-258.388 -3.273)" fill="#2f2e41"/>
    <path id="Path_28" data-name="Path 28" d="M824.564,306.489l-1.719,9.035.162,8.171q-.75.385-1.513.73l-.047.02c-.118.054-.243.111-.365.162-.942.419-1.905.8-2.885,1.138q-1.252.441-2.54.79a38.409,38.409,0,0,1-5.353,1.074,39.047,39.047,0,0,1-4.648.318l-.179-14.48c-.378-4.668.875-7.755,2.412-9.755,8.191-1.094,8.008-1.192,8.008-1.192l8.684,3.908Z" transform="translate(-293.154 -1.571)" fill="#2f2e41"/>
    <path id="Path_29" data-name="Path 29" d="M750.388,317.944,749.77,334.6c-.243-.095-.483-.189-.723-.29-.6-.25-1.189-.51-1.77-.79-.169-.078-.334-.159-.5-.24-.561-.274-1.115-.561-1.655-.865q-.978-.542-1.922-1.138l3.28-14.635Z" transform="translate(-251.957 -10.935)" fill="#2f2e41"/>
    <path id="Path_30" data-name="Path 30" d="M858.17,328.42l-.27.189c-.094.068-.193.135-.29.2q-.851.588-1.736,1.125-1.246.76-2.55,1.429l-.084.041q-.772.4-1.559.75h0l-.618-16.713L854.8,314.2l.172-.057Z" transform="translate(-323.386 -9.279)" fill="#2f2e41"/>
    <ellipse id="Ellipse_8" data-name="Ellipse 8" cx="9.661" cy="9.636" rx="9.661" ry="9.636" transform="translate(500.228 293.3) rotate(-73.66)" fill="#9f616a"/>
    <path id="Path_31" data-name="Path 31" d="M774.018,239.934v-3.76s-3.032-3.571.3-4.47c0,0,.91-9,8.793-4.8,0,0,10.915-1.8,9.7,4.5,0,0,2.729-1.644,1.819,2.554l-1.759,6.762s.85-4.467-1.879-5.066l-1.516-.9s-4.245,4.2-10.612-.9c0,0-2.729-.651-2.426,2.047S774.018,239.934,774.018,239.934Z" transform="translate(-271.53 49.23)" fill="#2f2e41"/>
  </g>
</svg>
